<?xml version="1.0" standalone="no"?>
<!DOCTYPE svg PUBLIC "-//W3C//DTD SVG 1.1//EN" "http://www.w3.org/Graphics/SVG/1.1/DTD/svg11.dtd" >
<svg xmlns="http://www.w3.org/2000/svg" xmlns:svg="http://www.w3.org/2000/svg" xmlns:xlink="http://www.w3.org/1999/xlink" viewBox="0 0 2048 2048"><path d="M842.38 1077.28Q983.27 1097.3 1065.62 1188.78Q1170.66 1217.51 1191.74 1282.43Q1243.84 1350.92 1222.4 1404.67Q1198.56 1461.39 1169.4 1516.65Q1111.4 1547.7 1082.58 1564.87Q1021.62 1549.64 939.95 1496.19Q931.06 1370.42 926.41 1281.95Q867.83 1162.89 809.72 1094.33ZM476.71 602.6L810.5 760.45Q818.44 800.22 724.43 766.11Q678.88 886.47 582.02 1021.8L694.54 1049.86Q697.03 1078.81 692.81 1090.55Q662.61 1088.82 636.23 1081.61V1913.63Q624.01 1939.4 623.03 1952.97Q561.6 1955.45 517.15 1974.27Q447.44 1979.37 423.84 2013.53H357.58V1218.73Q272.98 1292.49 231.2 1338.79Q156.52 1388.88 49.21 1420.74L29.04 1410.43Q125.66 1296.84 196.66 1161.48Q296.88 1057.67 344.66 907.12Q424.35 737.28 482.66 594.29ZM1363.1 674.11L1730.01 710.3Q1744.65 745.88 1672.16 761.52V925.08H1690.24L1791.27 753.34Q1815.35 757.11 1830.12 790.44Q1886.39 843.71 1919.35 870.9Q1973.07 933.78 2020.13 964.32Q2003.38 996.82 1967.61 985.09H1641.38V1662.96Q1665.25 1771.2 1645.33 1824Q1611.02 1893.86 1550.23 1957.4Q1454.56 1966.76 1283.5 1991.6Q1286.58 1930.8 1252.81 1885.38Q1240.3 1840.21 1247.87 1788.07Q1207.91 1766.51 1140.89 1721.76Q1128.27 1704.35 1027.8 1684.22V1680.81Q1012.45 1654.17 1075.77 1689.77Q1115.65 1660.66 1172.13 1682.03Q1210.21 1664.19 1272.65 1664.88Q1305.72 1665.23 1319.87 1669.96Q1388.16 1688.87 1359.43 1660.59V1005.94H719.16L693.62 944.07H1367.06ZM1171.04 57.23L1504.98 187.2Q1519.14 190.73 1510.62 199.79Q1488.66 233.4 1448.56 216.06Q1405.89 259.43 1408.59 264.98Q1398.77 290.21 1377.95 334.44H1625.98L1758.6 144.01Q1775.58 155.43 1800.24 177.4Q1832.45 234.61 1888.33 267.65Q1968.45 306.28 1995.74 361.87Q2018.15 392.2 1936.19 398.93H1517.43Q1628.61 414.29 1663.41 454.46Q1688.12 514.75 1693.56 556.49Q1652.13 623.42 1615.45 631.27Q1588.49 692.93 1531.9 660.92Q1496.41 690.61 1428.5 642.82Q1439.43 579.69 1411.07 522.81Q1387 435.2 1334.55 372.3H1302.36Q1251.59 474.23 1133.67 571.38Q1060.59 634.91 941.95 666.75L912.76 650.72Q996.27 556.98 1081.47 352.25Q1037.19 379.7 1026.13 399.64H683.2Q780.2 438.18 796.73 463.29Q864.52 517.14 839.17 553.91Q842.17 637.42 787.79 657.45Q745.57 682.87 707.69 666.04Q632.62 693.44 578.81 635.5Q572.89 554.94 580.72 514.56Q556.94 443.14 515.42 401H502.78Q401.37 514.06 289.87 627.62Q185.02 707.86 74.94 791.07L32.98 778.83Q106.78 614.06 189.26 460.1Q282.73 239.51 314.36 41.75L672.79 187.05Q662.34 209.37 592.73 213.38Q594.54 253.43 561.89 255.51Q570.71 308.52 540.55 311.24H732.26L869.01 144.42Q882.8 171.52 888.71 213.34Q923.98 220.35 992.27 268.24Q1031.47 305.43 1073.69 327.57Q1092.43 258.83 1131.42 186.23Q1138.77 145.81 1166.1 62.43Z" fill="black"></path></svg>