<?xml version="1.0" standalone="no"?>
<!DOCTYPE svg PUBLIC "-//W3C//DTD SVG 1.1//EN" "http://www.w3.org/Graphics/SVG/1.1/DTD/svg11.dtd" >
<svg xmlns="http://www.w3.org/2000/svg" xmlns:svg="http://www.w3.org/2000/svg" xmlns:xlink="http://www.w3.org/1999/xlink" viewBox="0 0 2048 2048"><path d="M838.0 1077.0Q993.0 1113.0 1078.5 1171.5Q1164.0 1230.0 1195.0 1295.0Q1226.0 1360.0 1214.5 1417.5Q1203.0 1475.0 1162.0 1510.5Q1121.0 1546.0 1063.5 1545.0Q1006.0 1544.0 946.0 1491.0Q946.0 1385.0 909.5 1277.0Q873.0 1169.0 821.0 1087.0ZM469.0 598.0 821.0 747.0Q804.0 788.0 735.0 782.0Q661.0 906.0 580.0 1005.0L709.0 1052.0Q702.0 1066.0 687.0 1076.5Q672.0 1087.0 643.0 1091.0V1925.0Q641.0 1934.0 606.5 1951.5Q572.0 1969.0 519.5 1984.0Q467.0 1999.0 412.0 1999.0H358.0V1226.0Q289.0 1283.0 215.5 1331.0Q142.0 1379.0 65.0 1419.0L45.0 1401.0Q124.0 1308.0 203.5 1180.0Q283.0 1052.0 352.5 902.5Q422.0 753.0 469.0 598.0ZM1372.0 678.0 1731.0 708.0Q1725.0 752.0 1659.0 764.0V938.0H1683.0L1800.0 762.0Q1800.0 762.0 1837.0 795.5Q1874.0 829.0 1923.5 875.5Q1973.0 922.0 2011.0 962.0Q2002.0 995.0 1956.0 995.0H1659.0V1667.0Q1659.0 1764.0 1634.0 1832.0Q1609.0 1900.0 1530.5 1940.5Q1452.0 1981.0 1290.0 1997.0Q1284.0 1926.0 1271.0 1876.0Q1258.0 1826.0 1229.0 1792.0Q1198.0 1759.0 1154.0 1735.0Q1110.0 1711.0 1018.0 1695.0V1669.0Q1018.0 1669.0 1058.5 1671.5Q1099.0 1674.0 1155.0 1677.0Q1211.0 1680.0 1261.0 1682.5Q1311.0 1685.0 1329.0 1685.0Q1372.0 1685.0 1372.0 1648.0V995.0H727.0L711.0 938.0H1372.0ZM1153.0 51.0 1520.0 176.0Q1513.0 194.0 1492.0 206.0Q1471.0 218.0 1436.0 217.0Q1419.0 246.0 1400.5 273.5Q1382.0 301.0 1364.0 327.0H1630.0L1763.0 157.0Q1763.0 157.0 1805.0 189.0Q1847.0 221.0 1903.5 266.5Q1960.0 312.0 2005.0 352.0Q1999.0 385.0 1948.0 385.0H1534.0Q1619.0 419.0 1651.0 467.5Q1683.0 516.0 1674.5 564.0Q1666.0 612.0 1630.0 644.5Q1594.0 677.0 1541.0 680.0Q1488.0 683.0 1432.0 641.0Q1427.0 573.0 1399.5 505.0Q1372.0 437.0 1335.0 385.0H1321.0Q1241.0 483.0 1148.5 557.5Q1056.0 632.0 954.0 684.0L932.0 667.0Q1008.0 547.0 1067.0 372.0Q1055.0 385.0 1028.0 385.0H668.0Q768.0 419.0 806.5 469.5Q845.0 520.0 838.0 569.0Q831.0 618.0 792.5 650.5Q754.0 683.0 699.0 684.0Q644.0 685.0 588.0 637.0Q588.0 571.0 566.5 504.0Q545.0 437.0 516.0 385.0H506.0Q412.0 515.0 298.5 612.5Q185.0 710.0 57.0 776.0L37.0 760.0Q126.0 632.0 205.0 442.5Q284.0 253.0 326.0 49.0L692.0 178.0Q675.0 220.0 608.0 217.0Q593.0 246.0 577.5 273.5Q562.0 301.0 545.0 327.0H752.0L870.0 164.0Q870.0 164.0 905.5 193.5Q941.0 223.0 989.5 265.5Q1038.0 308.0 1077.0 346.0Q1100.0 275.0 1119.5 200.5Q1139.0 126.0 1153.0 51.0Z" fill="black"></path></svg>